<svg xmlns="http://www.w3.org/2000/svg" viewBox="0 0 64 64">
  <defs>
    <radialGradient id="bg" cx="35%" cy="30%" r="70%">
      <stop offset="0%" stop-color="#f8fafc" />
      <stop offset="100%" stop-color="#d1d5db" />
    </radialGradient>
    <linearGradient id="blue" x1="0" y1="0" x2="1" y2="1">
      <stop offset="0%" stop-color="#60a5fa" />
      <stop offset="100%" stop-color="#2563eb" />
    </linearGradient>
    <linearGradient id="yellow" x1="1" y1="0" x2="0" y2="1">
      <stop offset="0%" stop-color="#fde047" />
      <stop offset="100%" stop-color="#eab308" />
    </linearGradient>
  </defs>
  <circle cx="32" cy="32" r="30" fill="url(#bg)" stroke="#111827" stroke-width="2" />
  <path d="M8 18c14-8 34-8 48 0" fill="none" stroke="#0f172a" stroke-width="2.5" />
  <path d="M6 34c16-6 36-6 52 0" fill="none" stroke="#0f172a" stroke-width="2.5" />
  <path d="M14 54c12-9 24-36 24-50" fill="none" stroke="#0f172a" stroke-width="2.5" />
  <path d="M52 50C41 39 29 18 28 6" fill="none" stroke="#0f172a" stroke-width="2.5" />
  <path d="M4 25c6 2 12 6 16 11-5 4-9 10-11 16C5 44 3 34 4 25Z" fill="url(#blue)" />
  <path d="M60 21c-1 8-4 16-9 22-4-5-9-9-15-11 3-5 8-10 14-14 4 0 7 1 10 3Z" fill="url(#yellow)" />
</svg>
